<svg xmlns="http://www.w3.org/2000/svg" xmlns:xlink="http://www.w3.org/1999/xlink" width="0" height="0" style="display:none;"><symbol viewBox="0 0 100 100" id="svgfont-ProviderIcon-antigravity">
<path d="M85.2843 88.0301C90.1329 91.6664 97.4057 89.2422 90.7389 82.5755C70.7389 63.1816 74.9813 9.84827 50.1329 9.84827C25.2843 9.84827 29.5267 63.1816 9.52673 82.5755C2.25402 89.8483 10.1328 91.6664 14.9813 88.0301C33.7692 75.3028 32.5571 52.8786 50.1329 52.8786C67.7086 52.8786 66.4965 75.3028 85.2843 88.0301Z" fill="white"></path>
</symbol><symbol viewBox="0 0 100 100" id="svgfont-ProviderIcon-claude">
<path d="M25.7146 63.2153L41.4393 54.3917L41.7025 53.6226L41.4393 53.1976H40.6705L38.0394 53.0359L29.054 52.7929L21.2624 52.4691L13.7134 52.0644L11.8111 51.6594L10.0303 49.3118L10.2123 48.138L11.8111 47.0657L14.0981 47.2681L19.1574 47.6119L26.7467 48.138L32.2516 48.4618L40.4073 49.3118H41.7025L41.8846 48.7857L41.4393 48.4618L41.0955 48.138L33.243 42.8155L24.7432 37.1894L20.2909 33.9513L17.8824 32.3119L16.6684 30.774L16.1422 27.4147L18.328 25.0062L21.2624 25.2088L22.0112 25.4112L24.9861 27.6979L31.3407 32.616L39.6381 38.7273L40.8525 39.7391L41.3381 39.395L41.399 39.1523L40.8525 38.2415L36.3394 30.0858L31.5227 21.7883L29.3775 18.3478L28.811 16.2837C28.6087 15.4334 28.4669 14.7252 28.4669 13.8549L30.9563 10.4753L32.3321 10.0303L35.6515 10.4756L37.0479 11.6897L39.112 16.4052L42.4513 23.8327L47.6321 33.9313L49.15 36.9265L49.9594 39.6991L50.2632 40.5491H50.7894V40.0632L51.2141 34.3766L52.0035 27.3944L52.7726 18.4087L53.0358 15.8793L54.2905 12.8435L56.7795 11.2041L58.7224 12.135L60.3212 14.422L60.0986 15.899L59.1474 22.0718L57.2857 31.7458L56.0713 38.2218H56.7795L57.5892 37.4121L60.8677 33.061L66.3723 26.18L68.801 23.448L71.6342 20.4325L73.4556 18.9957H76.8962L79.4255 22.7601L78.2926 26.6456L74.7509 31.1384L71.8163 34.943L67.607 40.6097L64.9758 45.1431L65.2188 45.5072L65.8464 45.4466L75.358 43.4228L80.4984 42.4917L86.6304 41.4393L89.4033 42.7346L89.7065 44.0502L88.6135 46.7419L82.0566 48.3607L74.3662 49.8989L62.9118 52.6109L62.77 52.7121L62.9321 52.9144L68.0925 53.4L70.2987 53.5214H75.7021L85.7601 54.2702L88.3912 56.0108L89.9697 58.1358L89.7065 59.7545L85.6589 61.8189L80.1949 60.5236L67.4452 57.4881L63.0735 56.3952H62.4665V56.7596L66.1093 60.3213L72.7877 66.3523L81.1461 74.1236L81.5707 76.0462L80.4984 77.5638L79.3649 77.4021L72.0186 71.8772L69.1854 69.3879L62.77 63.9844H62.3453V64.5509L63.8223 66.7164L71.6342 78.4544L72.0389 82.0567L71.4725 83.2308L69.4487 83.939L67.2222 83.534L62.6485 77.1189L57.9333 69.8937L54.1284 63.4177L53.6631 63.6809L51.4167 87.8651L50.3644 89.0995L47.9356 90.0303L45.9121 88.4924L44.8392 86.0031L45.9118 81.0852L47.2071 74.6701L48.2594 69.5699L49.2106 63.2356L49.7773 61.131L49.7367 60.9892L49.2715 61.0498L44.4954 67.607L37.23 77.4224L31.4825 83.5746L30.1063 84.1211L27.7181 82.8864L27.9408 80.6805L29.2763 78.7177L37.2297 68.5988L42.026 62.3248L45.1227 58.7025L45.1024 58.176H44.9204L23.7917 71.8975L20.0274 72.3831L18.4083 70.8655L18.6106 68.3761L19.3798 67.5664L25.7343 63.195L25.7146 63.2153Z" fill="white"></path>
</symbol><symbol viewBox="0 0 100 100" id="svgfont-ProviderIcon-codex">
<path d="M83.7733 42.8087C84.6678 40.1149 84.9771 37.2613 84.6807 34.4385C84.3843 31.6156 83.489 28.8885 82.0544 26.4394C77.6908 18.8436 68.9203 14.9365 60.3548 16.7725C57.9831 14.1344 54.9591 12.1668 51.5864 11.0673C48.2137 9.96772 44.611 9.77498 41.1402 10.5084C37.6694 11.2418 34.4527 12.8755 31.8132 15.2455C29.1736 17.6155 27.204 20.6383 26.1024 24.0103C23.3212 24.5806 20.6938 25.738 18.3958 27.405C16.0977 29.0721 14.1819 31.2104 12.7765 33.6772C8.36538 41.2609 9.3669 50.8267 15.2527 57.3327C14.3549 60.0251 14.0424 62.8782 14.3361 65.7012C14.6298 68.5241 15.523 71.2518 16.9558 73.7017C21.325 81.3002 30.1011 85.207 38.6712 83.3686C40.5554 85.4904 42.8707 87.1858 45.4623 88.3416C48.0539 89.4975 50.8622 90.0871 53.6999 90.0713C62.4793 90.079 70.2575 84.4114 72.9393 76.0515C75.7201 75.4802 78.347 74.3225 80.6449 72.6555C82.9427 70.9886 84.8587 68.8507 86.2649 66.3846C90.6227 58.8145 89.6172 49.3005 83.7733 42.8087ZM53.6999 84.8356C50.1955 84.8411 46.801 83.6129 44.1116 81.3661L44.5848 81.098L60.5123 71.9043C60.9087 71.6718 61.2379 71.3402 61.4674 70.942C61.6969 70.5439 61.8189 70.0929 61.8215 69.6333V47.1769L68.5553 51.072C68.6225 51.1063 68.6694 51.1707 68.6814 51.2456V69.854C68.6641 78.1208 61.9667 84.8183 53.6999 84.8356ZM21.4977 71.0843C19.7402 68.0497 19.1092 64.4925 19.7156 61.0386L20.1885 61.3225L36.1321 70.5165C36.5266 70.748 36.9757 70.87 37.4331 70.87C37.8905 70.87 38.3396 70.748 38.7341 70.5165L58.21 59.2883V67.0628C58.2081 67.1031 58.1973 67.1424 58.1782 67.1779C58.1591 67.2134 58.1322 67.2441 58.0996 67.2678L41.9671 76.5722C34.798 80.7022 25.6388 78.2463 21.4977 71.0843ZM17.3026 36.3898C19.0723 33.3357 21.8655 31.0062 25.1878 29.8138V48.7376C25.1818 49.1949 25.2986 49.6453 25.5261 50.042C25.7535 50.4387 26.0833 50.7671 26.4809 50.9928L45.8622 62.1739L39.1283 66.069C39.0919 66.0883 39.0513 66.0984 39.0101 66.0984C38.9689 66.0984 38.9283 66.0883 38.8919 66.069L22.7908 56.7809C15.6359 52.6337 13.1822 43.4816 17.3026 36.3112V36.3898ZM72.624 49.2426L53.1792 37.9512L59.8976 34.0718C59.9341 34.0524 59.9747 34.0423 60.016 34.0423C60.0573 34.0423 60.0979 34.0524 60.1344 34.0718L76.2355 43.3761C78.6973 44.7966 80.7043 46.8882 82.0221 49.4065C83.3398 51.9249 83.914 54.7661 83.6775 57.5985C83.4411 60.431 82.4038 63.1377 80.6867 65.4027C78.9696 67.6677 76.6436 69.3975 73.9803 70.3901V51.466C73.9663 51.0096 73.834 50.5647 73.5962 50.1749C73.3584 49.7851 73.0234 49.4638 72.624 49.2426ZM79.3261 39.1657L78.8529 38.8815L62.9411 29.6089C62.5442 29.376 62.0924 29.2532 61.6322 29.2532C61.172 29.2532 60.7202 29.376 60.3233 29.6089L40.8629 40.8374V33.0628C40.8587 33.0233 40.8654 32.9834 40.882 32.9473C40.8987 32.9113 40.9248 32.8803 40.9575 32.8579L57.0586 23.5692C59.5263 22.1476 62.3478 21.458 65.193 21.5811C68.0382 21.7042 70.7896 22.6348 73.1253 24.2642C75.461 25.8936 77.2845 28.1543 78.3825 30.782C79.4806 33.4097 79.8077 36.2957 79.3257 39.1025V39.1657H79.3261ZM37.1888 52.9484L30.455 49.069C30.4213 49.0487 30.3925 49.0212 30.3707 48.9884C30.3488 48.9557 30.3345 48.9186 30.3286 48.8797V30.3188C30.3323 27.4714 31.1466 24.6839 32.6761 22.2822C34.2057 19.8805 36.3874 17.9639 38.9661 16.7564C41.5448 15.549 44.4139 15.1005 47.2381 15.4636C50.0622 15.8267 52.7247 16.9862 54.9141 18.8067L54.4409 19.0748L38.5134 28.2686C38.117 28.5011 37.7879 28.8327 37.5584 29.2308C37.329 29.629 37.207 30.0799 37.2045 30.5395L37.1888 52.9487V52.9484ZM40.8472 45.0632L49.5209 40.0643L58.21 45.0635V55.0615L49.5523 60.0608L40.8632 55.0615L40.8472 45.0632Z" fill="white"></path>
</symbol><symbol viewBox="3.5 5.5 24.8 20" id="svgfont-ProviderIcon-deepseek">
  <path fill-rule="nonzero" d="M27.501 8.46875C27.249 8.3457 27.1406 8.58008 26.9932 8.69922C26.9434 8.73828 26.9004 8.78906 26.8584 8.83398C26.4902 9.22852 26.0605 9.48633 25.5 9.45508C24.6787 9.41016 23.9785 9.66797 23.3594 10.2969C23.2275 9.52148 22.79 9.05859 22.125 8.76172C21.7764 8.60742 21.4238 8.45312 21.1807 8.11719C21.0098 7.87891 20.9639 7.61328 20.8779 7.35156C20.8242 7.19336 20.7695 7.03125 20.5879 7.00391C20.3906 6.97266 20.3135 7.13867 20.2363 7.27734C19.9258 7.84375 19.8066 8.46875 19.8174 9.10156C19.8447 10.5234 20.4453 11.6562 21.6367 12.4629C21.7725 12.5547 21.8076 12.6484 21.7646 12.7832C21.6836 13.0605 21.5869 13.3301 21.501 13.6074C21.4473 13.7852 21.3662 13.8242 21.1768 13.7461C20.5225 13.4727 19.957 13.0684 19.458 12.5781C18.6104 11.7578 17.8438 10.8516 16.8877 10.1426C16.6631 9.97656 16.4395 9.82227 16.207 9.67578C15.2314 8.72656 16.335 7.94727 16.5898 7.85547C16.8574 7.75977 16.6826 7.42773 15.8193 7.43164C14.957 7.43555 14.167 7.72461 13.1611 8.10938C13.0137 8.16797 12.8594 8.21094 12.7002 8.24414C11.7871 8.07227 10.8389 8.0332 9.84766 8.14453C7.98242 8.35352 6.49219 9.23633 5.39648 10.7441C4.08105 12.5547 3.77148 14.6133 4.15039 16.7617C4.54883 19.0234 5.70215 20.8984 7.47559 22.3633C9.31348 23.8809 11.4307 24.625 13.8457 24.4824C15.3125 24.3984 16.9463 24.2012 18.7881 22.6406C19.2529 22.8711 19.7402 22.9629 20.5498 23.0332C21.1729 23.0918 21.7725 23.002 22.2373 22.9062C22.9648 22.752 22.9141 22.0781 22.6514 21.9531C20.5186 20.959 20.9863 21.3633 20.5605 21.0371C21.6445 19.752 23.2783 18.418 23.917 14.0977C23.9668 13.7539 23.9238 13.5391 23.917 13.2598C23.9131 13.0918 23.9512 13.0254 24.1445 13.0059C24.6787 12.9453 25.1973 12.7988 25.6738 12.5352C27.0557 11.7793 27.6123 10.5391 27.7441 9.05078C27.7637 8.82422 27.7402 8.58789 27.501 8.46875ZM15.46 21.8613C13.3926 20.2344 12.3906 19.6992 11.9766 19.7227C11.5898 19.7441 11.6592 20.1875 11.7441 20.4766C11.833 20.7617 11.9492 20.959 12.1123 21.209C12.2246 21.375 12.3018 21.623 12 21.8066C11.334 22.2207 10.1768 21.668 10.1221 21.6406C8.77539 20.8477 7.64941 19.7988 6.85547 18.3652C6.08984 16.9844 5.64453 15.5039 5.57129 13.9238C5.55176 13.541 5.66406 13.4062 6.04297 13.3379C6.54199 13.2461 7.05762 13.2266 7.55664 13.2988C9.66602 13.6074 11.4619 14.5527 12.9668 16.0469C13.8262 16.9004 14.4766 17.918 15.1465 18.9121C15.8584 19.9688 16.625 20.9746 17.6006 21.7988C17.9443 22.0879 18.2197 22.3086 18.4824 22.4707C17.6895 22.5586 16.3652 22.5781 15.46 21.8613ZM16.4502 15.4805C16.4502 15.3105 16.5859 15.1758 16.7568 15.1758C16.7949 15.1758 16.8301 15.1836 16.8613 15.1953C16.9033 15.2109 16.9424 15.2344 16.9727 15.2695C17.0273 15.3223 17.0586 15.4004 17.0586 15.4805C17.0586 15.6504 16.9229 15.7852 16.7529 15.7852C16.582 15.7852 16.4502 15.6504 16.4502 15.4805ZM19.5273 17.0625C19.3301 17.1426 19.1328 17.2129 18.9434 17.2207C18.6494 17.2344 18.3281 17.1152 18.1533 16.9688C17.8828 16.7422 17.6895 16.6152 17.6074 16.2168C17.5732 16.0469 17.5928 15.7852 17.623 15.6348C17.6934 15.3105 17.6152 15.1035 17.3877 14.9141C17.2012 14.7598 16.9658 14.7188 16.7061 14.7188C16.6094 14.7188 16.5205 14.6758 16.4541 14.6406C16.3457 14.5859 16.2568 14.4512 16.3418 14.2852C16.3691 14.2324 16.501 14.1016 16.5322 14.0781C16.8838 13.877 17.29 13.9434 17.666 14.0938C18.0146 14.2363 18.2773 14.498 18.6562 14.8672C19.0439 15.3145 19.1133 15.4395 19.334 15.7734C19.5078 16.0371 19.667 16.3066 19.7754 16.6152C19.8408 16.8066 19.7559 16.9648 19.5273 17.0625Z"></path>
</symbol><symbol viewBox="0 0 24 24" id="svgfont-ProviderIcon-mistral"><title>Mistral</title><path clip-rule="evenodd" d="M3.428 3.4h3.429v3.428h3.429v3.429h-.002 3.431V6.828h3.427V3.4h3.43v13.714H24v3.429H13.714v-3.428h-3.428v-3.429h-3.43v3.428h3.43v3.429H0v-3.429h3.428V3.4zm10.286 13.715h3.428v-3.429h-3.427v3.429z"></path></symbol></svg>